<svg width="51" height="51" viewBox="0 0 51 51" fill="none" xmlns="http://www.w3.org/2000/svg">
<path d="M43.25 1.91666H7.08335C4.22988 1.91666 1.91669 4.22986 1.91669 7.08333V43.25C1.91669 46.1035 4.22988 48.4167 7.08335 48.4167H43.25C46.1035 48.4167 48.4167 46.1035 48.4167 43.25V7.08333C48.4167 4.22986 46.1035 1.91666 43.25 1.91666Z" stroke="black" stroke-width="3.83333" stroke-linecap="round" stroke-linejoin="round"/>
<path d="M16.125 12.25C15.0973 12.25 14.1117 12.6583 13.385 13.385C12.6583 14.1117 12.25 15.0973 12.25 16.125C12.25 17.1527 12.6583 18.1383 13.385 18.865C14.1117 19.5917 15.0973 20 16.125 20C17.1527 20 18.1383 19.5917 18.865 18.865C19.5917 18.1383 20 17.1527 20 16.125C20 15.0973 19.5917 14.1117 18.865 13.385C18.1383 12.6583 17.1527 12.25 16.125 12.25Z" stroke="black" stroke-width="3.83333" stroke-linecap="round" stroke-linejoin="round"/>
<path d="M48.4167 32.9167L35.5 20L7.08337 48.4167" stroke="black" stroke-width="3.83333" stroke-linecap="round" stroke-linejoin="round"/>
</svg>
