<?xml version="1.0" encoding="UTF-8"?>
<svg id="Layer_1" data-name="Layer 1" xmlns="http://www.w3.org/2000/svg" viewBox="0 0 1000 1000">
  <defs>
    <style>
      .cls-1 {
        fill: #161d26;
      }

      .cls-2 {
        fill: #ff8e3c;
      }
    </style>
  </defs>
  <path class="cls-1" d="M646.27,501.38c.15.91,5.52,3.37,4.9,7.4-.23,1.49-8.49,12.82-10.13,13.72-8.42,4.61-20.4-14.38-31.48-8.21l-111.53,67.03-10.87-2.07-90.58-56.27-9.51-.65-83.73,51.41,2.31,8.86,58.57,35.13c2.51,1.19,2.33,4.36,1.8,6.69-2.56,11.28-102.17,65.23-116.75,77.39-3.02,4.14,18.53,13.3,20.62,15.54,5.76,6.21-1.03,10.8-7.51,10.39-5.2-.32-41.09-19.42-34.15-28.56l116.68-74.65-58.9-37.97-197.81,120.56c-.97,3.97.6,4.19,2.76,6.35,6.9,6.91,46.77,26.64,49.2,30.75,1.71,2.88-2.62,24.99-6.18,25.75-13.89-10.56-89.05-50.59-92.42-62.13l-.04-258.36,4.83-5.65,211.72-130.21c4.23-49.33-4.14-104.33.31-152.99.49-5.37.33-9.75,4.13-14.21L496.23,0l12.07,2.64,221.64,139.95,6.69,6.41c.23,15.77,3.44,33.09,4.08,48.32.67,15.94-2.45,108.64.47,113.57,1.41,2.38,10.17,1.91,7.3,10.98-15.34-1.73-49.4,19.73-59.03,2.69-6.54-11.56,17.9-12.95,22.55-20.14,4.84-7.48,1.42-23.48,2.38-32.32-13.35,5.31-45.35,32.28-58.32,28.37-3.88-1.17-16.03-9.75-11.93-14.88,19.13-14.35,47.55-25.44,65.73-39.59,1.58-1.23,4.55-5.23,4.55-6.65v-58.96c-17.59,5.45-116.47,75.87-125.65,72.14-2.1-.85-18.94-13.02-14.62-17.2l127.12-79.83L503.94,30.37h-8.79c-56.84,40.32-119.68,72.13-177.23,111.21-3.88,2.64-22.88,13.8-20.12,17.81l194.66,121.25c9.01,6.09,14.54-4.97,21.71-5.97,7.59-1.06,25.67,10.78,22.05,15.74-.88,1.21-26.2,10.68-26.2,14.45v61.58c12.74-.52,71.93-45.13,76.91-44.25,1.46.26,19.51,13.48,17.41,18.01l-93.77,55.59-.54,30.9,117.23-70.37,84.29,56.24c-2.16,6.52-4.88,17.83-13.61,16.43-11.03-1.77-38.38-27.16-51.67-31.11,3.68,31.2-4.95,73.75,0,103.5ZM486.44,369.05v-64.2c-63.39-37.43-124.43-81.71-187.82-118.74-4.21-2.46-8.92-5.81-13.94-5.72v61.58c65.62,44.77,133.94,85.74,201.76,127.08ZM408.8,349.72c-2.13-1.37-4.29-7.56-8.41-8.56l-115.69-69.03v23.56c7.67-.24,12.19-8.47,20.17-3.28l101.86,63.36c7.23,7.65,2.02,19.16,4.15,28.61l71.68,42.3c5.32.69,3.4-.21,3.89-3.85.71-5.39,1.08-24.75-1.69-27.82-24.38-16.31-51.39-29.5-75.95-45.29ZM341.37,341.23c-8.9-6.09-37.35-26.01-46.23-23.52l-217.43,140.39c20.55,6.41,47.37,34.74,65.7,40.67,2.78.9,4.72,1.93,7.65.24l220.1-135.23c-9.9-7.02-19.9-15.8-29.77-22.56ZM386.87,384.78l-9.35,2.45-218.61,135.12v111.36c32.85-14.51,61.76-37.3,93.06-54.99,6.5-10.59-3.97-64.1,2.61-78.61,1.69-3.72,41.07-29.08,45.65-30.39,3.43-.98,8.04.07,8.04,2.85v69.44l78.61-48.47v-108.74ZM622.69,387.4c-4.04-.94-5.7,1.63-8.63,3.16-34.88,18.23-69.82,46.05-104.04,66.28v37.99c11.88-11.28,112.67-62.82,112.67-69.44v-37.99ZM486.44,494.83v-37.99c0-4.77-59.47-35.69-66.65-43.4l-9.34-2.45v37.99c0,3.99,59.83,38.76,67.36,42.69,2.93,1.53,4.59,4.1,8.63,3.16ZM622.68,455.54l-122.47,72.91-7.74-1.54-80.73-50.4c-11.45,36.22,22.13,41.66,46.63,55.56,7.51,4.26,33.63,23.77,39.21,22.65l110.1-68.34c3.06-3.04,14.22-1.3,15.01-2.04,1.05-1-.74-24.15-.01-28.8ZM64.58,693.96l70.33-43.65c-2.78-38.43,5.11-85.55.57-122.9-.44-3.6-.27-4.67-2.8-7.68-2.25-2.69-53.22-35.54-58.77-38.18-3.19-1.52-5.28-3.36-9.34-2.45v214.86ZM295.16,489.59c-5.71.39-27.1,13.68-28.39,17.46-2.44,7.16-.1,29.11-.45,38.84-.16,4.5-7.29,23.74,3.64,22.07,1.5-.23,25.2-15.28,25.2-16.8v-61.58Z"/>
  <path class="cls-1" d="M837.55,527.58c-1.93-6.63-44.2-26.05-46.83-30.51-1.9-3.23,4.61-17.55,7.48-19.36,11.12-7.02,41.73,25.89,55.3,26.41l67.88-40.76-46-31.4c-3.5-5.54,8.21-13.45,6.83-20.89l9.69,1.91c19.5,17.18,45.64,25.49,64.26,43.17,3.58,85.72,2.45,172.98.58,258.75-148.18,99.24-303,189.64-453.94,285.11l-11-.86-205.82-129.6c-14.54-9.61,18.67-14.1,25.6-12.7,15.39,3.12,41.55,30.94,59.58,33.64v-75.99c-8.61-3.83-67.16-36.84-68.1-40.7-1.41-5.8,7.14-9.46,13.09-8.01,14.79,3.63,38.91,27.43,55.01,32.99v-43.23c0-1.67,4.82-7.43,6.95-8.77l111.07-69.71,13.65-.82,118.62,72.7c5.55,28.41,3.09,57.24,4.43,85.99,12.08,2.86,40.14,27.75,49.92,26.29l242.98-154.1-106.53-64.95c-11.88-1-80.79,53.96-91.24,54.3-6.07.2-57.68-29.36-52.62-39.17,4.13-8,68.57-38.59,78.84-49.74,6.54-9.66-7.99-8.76-9.06-14.79-.28-1.59,9.96-18.73,11.87-19.18,4.97-1.15,75.18,48.7,87.53,52.25v-98.26ZM934.48,484.36c-2.68-3.05-63.19,37.6-69.44,41.89l-.8,116.12c2.54,8.34,56.09,36.02,66.29,43.77l3.95-201.79ZM798.24,628.49c-11.66-1.19-23.72-17.56-34.73-15.39-20.03,15.24-51.14,27.8-69.91,43.03-3.06,2.48-6.34,4.22-5.4,8.97,12.27,1.06,22.55,18.33,34.69,15.29l72.58-45.54,2.77-6.36ZM586,762.05c2.32-3.02-3.21-7.2-5.4-8.97-22.93-18.6-58.05-33.45-82.78-50.74l-89.94,55.82c17.43,7.57,76.39,54.18,90.4,53.93,6.69-.12,68.22-39.82,79.05-46.95,2.87-1.89,8.39-2.71,8.67-3.08ZM486.44,832.83l-82.37-49.95-9.34-2.45v127.08c17.52,14.05,38.41,27.32,57.87,39.08,10.38,6.28,22.19,15.11,33.84,17.25v-131.01ZM510.02,963.85c31.24-14.91,59.73-35.45,89.09-53.71v-129.7l-89.09,56.33v127.08ZM622.69,895.72c5.56-4.38,38.08-19.22,36.68-24.86-.55-2.19-31.09-20.58-36.68-22.3v47.16Z"/>
  <path class="cls-2" d="M519.53,189.27c.76.45,13.12,10.33,13.83,11.04,15.08,15.12,3.75,31.46,8.66,39.83,3.45,5.88,46.68,26.99,52.01,38.43,30.92,15.25,58.46,45.72,86.92,62.51,12.75,7.52,20,6.34,34.6,4.21,4.54-.66,7.79-3.87,11.24-4.47,17.6-3.06,35.46-5.42,53.03-8.55-8.66-33.65,4.6-71.04,37.54-84.29,23.57-9.48,38.3-9.72,61.04,2.8,38.02,20.91,45.81,73.11,24.34,108.21-5.08,8.31-25.64,20.66-27.8,23.89-5.97,8.9.88,22.25-15.77,35.86-21.4,17.49-53.04,33.02-75.94,47.98-18.6,38.3-38.62,76.55-53.94,113.77-25.86,21.53-56.45,39.17-85.03,57.6-14.74,9.5-23.34,23.77-43.94,16.72-18.8-6.43-35.13-22.15-51.69-32.3-7.76-4.76-19.91-7.06-24.16-15l-321.79,204.39c-7.02-5.95-9.2-10.81-6.65-20.58l43.43-25.85c91.1-61.3,182.68-117.19,275.98-177.36,5.41-1.97,13.51-2.77,18.96-1.5,2.13.49,2.12,4.25,3.74,5.09,25.02,13.05,47.67,30.41,72.83,42.28l37.46-26.21c14.37-7.47,35.62-17.2,48.29-26.54,29.1-21.45,46.78-94.19,68.87-125.6,10.08-9.66,82.57-52.98,84.26-58.39,2.67-8.52-1.63-17.51,4.71-25.56,3.88-4.92,19.05-10.97,23.66-15.63,18.86-19.06,19.22-49.43,5.99-71.65-13.82-23.23-42.64-26.88-65.53-14.03-32.21,18.09-30.74,79.26,20.32,75.27,6.06-.47,13.86-8.19,18.98.35,7.91,13.18-22.48,21.23-31.93,20.35-9.27-.86-24.42-7.35-29.68-15.57-33.07,5.2-66.95,11.03-99.33,20.82-16.92,1.63-43.75-26.37-57.97-36.52-29.67-21.17-61.61-42.32-91.38-64.05-6.32-4.61-16.35-20.2-25.47-19.29-3.04.31-6.78,4.05-11.15,4.65-16.63,2.27-50.89-19.8-53.59-37.83-5.49-36.65,35.38-44.94,62.01-29.26ZM479.22,204.63c-11.4,10.98,15.39,33.01,31.9,30.66,34.73-4.94-15.15-46.8-31.9-30.66Z"/>
  <path class="cls-2" d="M158.92,835.44c14.13-3.65,28.87-1.28,43.08-2.75,19.31-1.99,46.09-8.58,65.93-10.06,12.93-.96,34.93-2.81,47.01-2.52,6.93.16,11.93,4.22,11.94,11.4.01,17.46-21.6,10.33-32.97,11.85-35.06,4.7-69.47,7.1-104.57,10.72-11.3,1.16-44.72,10.45-54.16,3.82-9.37-6.59,9.79-53.27,12.57-63.75,5.72-21.55,9.72-48.64,17.13-69.33,7.11-19.84,28.1-14.66,25.5,1.68-.55,3.45-3.82,6.01-4.5,8.86-7.95,33.67-18.57,66.57-26.96,100.08Z"/>
  <path class="cls-1" d="M575.02,664.77c-.56.75-10.03-.08-1.99,6.8l101.25,63.98c5.22.8,47.97-36.5,62.4-36.5,9.67,0,49.6,22.86,45.6,35.1-1.58,4.82-53.91,30.27-60.11,39.65l-11.08.92c-25.1-14.9-50.04-30.17-74.62-45.89-19.57-12.52-37.84-27.44-57.86-39.81-5.82-3.6-25.58-10.67-29.29-14.68-11.18-12.12,17.2-33.23,26.2-13.1.53,1.33.34,2.42-.49,3.52ZM688.21,746.32c.87,1.25,25.08,13.43,27.31,13.24,2.85-.24,48.63-27.36,48.61-30.22-7.33-4.97-20.25-18.1-29.5-16.63-2.54.4-40.9,24.63-43.71,27.22-1.81,1.67-4.45,3.89-2.71,6.4Z"/>
  <path class="cls-2" d="M756.33,403.11c.87.87.19,12.79-1.43,15.63-32.64,37.95-57.54,99.41-90.2,135.03-2.3,2.51-18.42,15.96-20.27,16.53-11.62,3.55-22.27-4.04-15.96-14.7.69-1.17,7.86-3.51,10.54-5.84,12.14-10.57,14.95-17.55,23.25-29.19,27.09-37.98,51.92-79.32,80.14-116.95,2.47-.74,13.36-1.08,13.93-.51Z"/>
  <path class="cls-1" d="M614.85,272.06c-1.72-9.69,6.99-12.2,13.31-16.76,6.68-4.82,50.42-33.33,54.63-34.51,3.72-1.05,6.7-.98,7.88,3.08,3.01,10.32-9.16,15.83-15.8,20.5-8.56,6.01-39.24,26.17-47.12,29.1-5.36,2-8.04-.44-12.9-1.41Z"/>
  <path class="cls-2" d="M897.42,193.89c7.22,11.78-6.06,17.1-10.93,23.83-5.2,7.18-6.79,21.67-19.44,16.86-20.34-7.74,19.45-58.49,30.37-40.68Z"/>
  <path class="cls-2" d="M928.99,212.07c.75.54,2.49,7.17,2.48,8.96-.03,10.76-11.83,11.45-20.28,15.99-3.79,2.04-6.33,7.48-10,8.52-7.27,2.06-16.81-3.57-11.4-11.51,4.61-6.78,31.42-27.5,39.2-21.96Z"/>
  <path class="cls-2" d="M855.58,193.82c5.56,12.32.29,15.97-3.7,25.9-1.21,3.02-.89,9.88-1.35,10.34-2.29,2.26-19.7.08-20.48-6.8,6.93-16.04,1.48-34.59,25.53-29.44Z"/>
  <path class="cls-2" d="M941.98,246.29c1.57.98,4.13,12.62,2.67,15-2.04,3.32-32.03,11.5-36,5.24-7.44-11.71,23.64-26.34,33.33-20.24Z"/>
  <path class="cls-1" d="M565.03,311.36c-.99,1.42-26.91,15.88-31.41,13.13-6.86-6.95,14.61-21.2,20.74-22.33,4.88-.91,13.35,5.34,10.68,9.2Z"/>
  <path class="cls-2" d="M834.94,287.82c3.64,7.51-4.62,26.14-13.15,22.37-14.83-6.56-3.71-29.28,13.15-22.37Z"/>
  <path class="cls-2" d="M866.39,303.54c1.64,12.24-1.42,24.73-15.91,19.85-6.62-15.13-.48-23.31,15.91-19.85Z"/>
  <path class="cls-1" d="M703.9,536.76c2.17,2.2-5.94,26.69-14.37,23.54-10.42-3.89,8.82-29.15,14.37-23.54Z"/>
  <path class="cls-1" d="M221.03,542.48c10.34-2.62,9.94,7.35,3.22,13.76-1.69,1.61-36.87,23.22-39.05,23.92-10.4,3.38-14.08-4.47-6.75-12.08,1.72-1.79,40.16-24.99,42.57-25.6Z"/>
  <path class="cls-1" d="M227.02,510.56c.94.98-.12,8.13-1.29,10.48-1.09,2.2-36.88,26.5-40.53,27.69-10.08,3.28-14.4-3.81-6.31-11.64,4.43-4.3,45.01-29.77,48.12-26.52Z"/>
  <path class="cls-1" d="M305.66,222.34c4.57-.62,8.17.3,12.35,2.03,44.56,18.51,95.45,68.51,142.1,88.47,9.22,5.46,6.09,17.57-5.04,12.92l-146.97-94.11-2.45-9.32Z"/>
  <path class="cls-1" d="M470.7,895.71c-2.29,2.58-58.01-31.57-59.68-34.59-5.28-9.53.96-11.65,9.76-8.48,4.75,1.71,45.7,28.19,47.49,31.11s4.04,10.14,2.43,11.95Z"/>
  <path class="cls-1" d="M470.7,859.02c-1.63,1.82-11.42-4.39-13.86-5.76-7.06-3.94-40.71-23.34-43.74-27.01-7.21-8.75-4.06-14.41,7.09-9.71,6.22,2.63,47.36,28.33,49.17,32.05,1.15,2.37,2.33,9.32,1.35,10.42Z"/>
  <path class="cls-1" d="M470.15,919.84c1.01,1.84.98,9.47.55,9.93-3.23,3.52-48.55-24.42-53.71-28.8-4.42-3.76-7.56-6.64-6.53-13.1,4.19-3.91,58.03,28.97,59.68,31.97Z"/>
</svg>